<?xml version="1.0" standalone="no"?>
<!DOCTYPE svg PUBLIC "-//W3C//DTD SVG 20010904//EN"
 "http://www.w3.org/TR/2001/REC-SVG-20010904/DTD/svg10.dtd">
<svg version="1.0" xmlns="http://www.w3.org/2000/svg"
 width="300.000000pt" height="300.000000pt" viewBox="0 0 300.000000 300.000000"
 preserveAspectRatio="xMidYMid meet">

<g transform="translate(0.000000,300.000000) scale(0.100000,-0.100000)"
fill="#000000" stroke="none">
<path d="M1355 2569 c-156 -20 -347 -91 -468 -175 l-60 -42 -36 24 c-20 13
-56 30 -81 39 -47 17 -177 22 -191 8 -4 -4 7 -25 25 -46 30 -35 34 -37 61 -27
42 16 57 -5 15 -22 l-32 -13 19 -24 c18 -22 20 -22 56 -8 23 10 39 12 43 6 11
-18 -5 -23 -81 -30 -52 -4 -89 -14 -129 -34 -88 -44 -88 -49 0 -79 l76 -25 18
21 c17 22 40 18 40 -7 0 -14 -27 -28 -41 -20 -21 13 -118 -159 -159 -283 -42
-127 -53 -202 -53 -357 -1 -199 30 -331 117 -502 215 -426 709 -677 1177 -598
467 78 818 421 921 900 7 36 12 123 12 215 -1 132 -5 169 -27 251 -33 125 -80
237 -133 317 -24 35 -42 68 -39 72 2 4 39 17 82 30 l77 23 -30 23 c-42 35
-127 64 -185 64 -51 0 -89 13 -89 30 0 14 27 12 60 -5 27 -14 30 -14 49 11 24
31 20 44 -15 44 -16 0 -24 5 -21 13 5 13 7 13 48 3 22 -5 30 0 53 32 14 21 26
41 26 44 0 4 -17 9 -37 12 -67 12 -176 -19 -254 -70 -26 -17 -28 -17 -85 21
-123 82 -300 144 -474 165 -96 11 -155 11 -255 -1z m380 -97 c44 -12 113 -35
154 -51 72 -30 186 -94 196 -111 3 -5 -3 -23 -14 -40 -15 -26 -21 -29 -27 -17
-18 30 -81 58 -148 64 -73 7 -82 -1 -38 -34 21 -16 33 -18 52 -11 24 9 24 8 8
-8 -16 -16 -16 -18 0 -30 12 -8 22 -9 35 -2 10 5 20 8 21 6 14 -19 46 -77 46
-83 0 -5 -10 1 -23 13 -35 33 -95 54 -158 53 -55 0 -59 2 -78 32 -33 53 -93
104 -156 134 -75 34 -189 38 -273 10 -60 -21 -153 -100 -172 -147 -8 -20 -19
-30 -34 -30 -37 0 -92 -19 -130 -45 -20 -14 -39 -25 -42 -25 -4 0 26 57 42 78
1 2 11 -1 21 -6 13 -7 24 -6 37 4 17 12 17 16 5 30 -13 16 -12 16 6 7 16 -9
26 -6 55 18 l34 29 -59 0 c-65 0 -155 -34 -172 -64 -8 -14 -12 -11 -25 18
l-17 34 42 30 c96 68 252 132 390 158 104 20 319 12 422 -14z m-164 -108 c77
-23 142 -73 182 -140 4 -7 -15 -25 -46 -45 l-52 -33 80 -7 c66 -6 83 -4 98 9
16 15 17 15 12 0 -9 -23 31 -34 62 -17 21 11 26 10 43 -7 19 -19 19 -19 -18
-20 -55 0 -87 -11 -122 -40 -31 -26 -76 -101 -66 -111 2 -3 18 -2 34 2 23 5
32 13 38 38 l7 32 4 -28 c4 -22 9 -28 26 -25 16 2 25 13 31 41 12 47 23 48 18
2 -4 -29 -1 -35 15 -35 14 0 22 -11 29 -40 l11 -40 -243 -2 c-152 -2 -245 -7
-247 -13 -3 -13 631 -25 656 -13 10 5 25 4 37 -2 34 -18 22 -31 -27 -29 -27 1
-95 -10 -153 -25 -96 -24 -122 -26 -302 -26 -179 0 -228 -6 -182 -24 9 -3 184
-6 390 -6 206 0 374 -3 374 -7 -1 -5 -22 -18 -49 -30 -46 -22 -59 -23 -314
-23 -217 0 -267 -3 -267 -13 0 -19 32 -32 189 -78 157 -46 216 -72 238 -105
27 -42 12 -54 -72 -54 -43 0 -75 -4 -75 -10 0 -6 29 -10 68 -10 l67 -1 -25
-20 c-43 -37 -135 -77 -245 -110 -107 -31 -142 -34 -87 -5 55 28 72 61 72 137
0 58 -4 72 -26 98 -14 17 -52 43 -85 58 -32 15 -59 30 -59 34 0 12 -136 99
-154 99 -27 0 -18 -14 33 -53 27 -21 55 -45 63 -54 12 -15 11 -15 -10 -4 -12
7 -48 30 -79 51 -31 22 -72 44 -92 50 -38 11 -254 14 -264 4 -3 -3 19 -31 48
-62 l54 -57 188 -5 188 -5 70 -35 70 -35 -120 -3 c-66 -1 -156 2 -200 6 -44 5
-82 7 -84 5 -3 -2 9 -17 25 -34 25 -25 42 -31 100 -39 38 -5 92 -13 119 -19
53 -10 127 -5 158 11 15 8 18 6 15 -8 -5 -28 -47 -44 -116 -44 -69 0 -228 32
-272 55 l-29 15 15 -38 c26 -62 32 -65 181 -78 l138 -12 -146 1 c-168 2 -167
2 -219 94 -21 37 -41 59 -63 68 -44 18 -331 85 -378 88 -28 1 -35 5 -27 14 6
8 20 10 35 7 26 -7 43 7 43 35 0 11 -3 11 -17 1 -10 -7 3 8 30 34 26 26 47 49
47 52 0 10 -47 2 -64 -11 -27 -21 -66 -18 -96 5 -14 11 -33 20 -43 20 -10 0
-15 5 -12 10 4 6 110 10 285 10 153 0 285 3 294 6 39 15 6 22 -121 26 -107 4
-156 11 -218 29 -56 17 -93 23 -122 18 -47 -6 -52 -1 -24 25 14 13 24 15 38 8
11 -6 88 -8 201 -5 143 5 182 9 182 20 0 10 -24 13 -111 13 -98 0 -110 2 -105
16 3 9 9 26 12 38 4 18 11 22 29 18 23 -4 24 -2 19 34 -4 29 -3 35 5 24 6 -8
11 -25 11 -36 0 -22 17 -34 47 -34 12 0 14 7 9 30 -3 17 -2 29 3 26 5 -3 11
-19 14 -35 5 -23 12 -30 39 -34 18 -2 35 -3 36 -2 9 8 -64 104 -96 126 -28 19
-48 24 -93 24 -58 0 -58 0 -39 19 15 16 22 17 34 7 10 -8 27 -10 46 -6 31 7
31 7 13 28 -16 20 -15 20 8 -1 19 -16 35 -22 55 -18 16 2 53 5 83 5 47 1 52 3
40 17 -7 8 -30 24 -51 35 -21 11 -38 22 -38 25 0 17 34 65 65 92 85 76 187 98
296 66z m687 -21 c-68 -56 -123 -127 -158 -206 -19 -40 -20 -41 -19 -12 1 75
64 170 141 214 66 38 80 39 36 4z m-1518 -13 c79 -40 140 -122 154 -205 6 -40
6 -40 -26 20 -18 33 -64 93 -103 133 -39 39 -69 72 -67 72 1 0 20 -9 42 -20z
m1490 -80 c0 -5 -5 -10 -11 -10 -5 0 -7 5 -4 10 3 6 8 10 11 10 2 0 4 -4 4
-10z m180 -49 c-8 -5 -39 -11 -69 -15 -29 -4 -82 -18 -118 -31 -77 -29 -79
-30 -62 -9 14 17 61 43 99 55 35 10 169 11 150 0z m-1654 -29 c76 -39 71 -53
-8 -25 -40 14 -99 28 -130 31 -84 7 -61 25 26 20 44 -3 86 -13 112 -26z m1634
-17 c13 -16 6 -35 -15 -35 -18 0 -28 17 -21 35 7 19 20 19 36 0z m-89 -52 c12
-15 12 -16 -4 -10 -10 4 -25 7 -33 7 -9 0 -12 5 -9 10 9 15 31 12 46 -7z
m-1581 -3 c0 -5 -10 -10 -22 -10 -19 0 -20 2 -8 10 19 13 30 13 30 0z m1566
-55 c40 -24 94 -86 94 -110 0 -5 -7 0 -15 12 -22 31 -114 89 -173 108 -29 10
-52 20 -52 23 0 14 107 -10 146 -33z m-1479 14 c-56 -13 -113 -45 -165 -92
l-46 -42 23 40 c39 67 104 105 176 104 l50 -1 -38 -9z m148 -34 c14 -13 25
-30 25 -38 0 -25 -41 -67 -65 -67 -24 0 -65 42 -65 67 0 19 45 63 65 63 9 0
27 -11 40 -25z m1143 9 c46 -32 17 -114 -40 -114 -26 0 -58 36 -58 65 0 29 32
65 58 65 10 0 28 -7 40 -16z m-1318 -28 c0 -2 -7 -7 -16 -10 -8 -3 -12 -2 -9
4 6 10 25 14 25 6z m1454 -5 c4 -5 -3 -7 -14 -4 -23 6 -26 13 -6 13 8 0 17 -4
20 -9z m-1476 -72 c35 2 41 0 36 -13 -5 -12 -20 -16 -63 -15 -31 0 -50 3 -43
6 6 2 12 17 13 31 0 23 1 24 8 7 6 -16 16 -19 49 -16z m1682 -21 c0 -5 -7 -8
-15 -8 -10 0 -15 10 -15 33 l1 32 14 -25 c8 -14 14 -28 15 -32z m-1870 17 c0
-16 -6 -25 -15 -25 -18 0 -18 5 -5 31 14 26 20 24 20 -6z m1710 9 c7 7 10 5
10 -6 0 -9 6 -19 13 -21 6 -3 -14 -6 -45 -6 -46 -1 -59 3 -67 17 -9 17 -6 18
34 12 27 -4 48 -3 55 4z m-1566 -109 c-20 -25 -38 -45 -40 -45 -1 0 -19 10
-39 21 -29 17 -46 20 -85 16 l-49 -6 11 30 10 29 115 0 114 0 -37 -45z m1754
20 c7 -14 12 -27 12 -29 0 -2 -19 -1 -43 1 -32 4 -55 -1 -86 -17 -48 -24 -40
-27 -92 43 l-20 27 109 0 c107 0 109 0 120 -25z m-1932 -83 c7 -4 -1 -15 -22
-29 l-34 -22 0 23 c0 12 3 26 7 29 8 9 35 9 49 -1z m1963 -14 c12 -31 8 -32
-28 -10 -32 19 -32 32 1 32 10 0 22 -10 27 -22z m-1879 -44 l25 -15 -25 5
c-14 3 -41 6 -60 6 -26 0 -31 3 -20 10 21 14 51 12 80 -6z m1830 6 c11 -7 3
-10 -28 -10 -24 0 -53 -5 -64 -11 -15 -8 -19 -8 -13 1 16 26 78 38 105 20z
m-1700 -10 c12 -8 9 -10 -12 -10 -14 0 -35 -3 -45 -6 -16 -5 -16 -4 1 10 23
18 35 20 56 6z m1545 -9 c3 -6 -10 -7 -32 -4 -50 8 -55 13 -10 13 20 0 38 -4
42 -9z m-1712 -41 c-38 -23 -53 -48 -53 -89 0 -29 -2 -31 -40 -31 -29 0 -40 4
-40 15 0 8 7 15 15 15 19 0 19 16 1 27 -9 5 -12 18 -9 36 5 24 10 27 47 27 22
0 48 5 56 10 8 5 24 10 35 10 16 0 13 -4 -12 -20z m1852 10 c3 -5 23 -10 44
-10 34 0 39 -3 44 -27 7 -36 2 -43 -29 -43 -14 0 -22 -4 -19 -10 3 -5 17 -10
31 -10 32 0 32 -28 -1 -32 -14 -2 -26 -7 -26 -13 0 -5 12 -11 26 -13 14 -2 25
-10 25 -18 0 -12 -13 -14 -62 -12 l-63 3 -6 40 c-3 22 -9 51 -13 64 l-8 24 31
-22 c17 -12 35 -30 41 -39 7 -13 9 -8 9 23 0 46 -13 68 -55 90 l-29 15 27 0
c15 0 30 -4 33 -10z m-265 -25 c0 -17 11 -20 25 -6 6 5 37 6 70 3 58 -7 59 -8
66 -42 4 -19 6 -36 4 -38 -2 -2 -34 6 -72 17 -37 11 -133 32 -213 46 -80 15
-149 28 -155 30 -5 2 54 4 133 4 120 1 142 -1 142 -14z m-1430 -42 c-35 -38
-41 -49 -38 -81 3 -36 2 -37 -31 -40 l-34 -3 6 73 c7 86 18 97 89 96 l49 0
-41 -45z m-145 -30 c-8 -21 -16 -50 -20 -65 -5 -27 -8 -28 -65 -28 -47 0 -60
3 -60 15 0 12 13 15 55 15 42 0 55 3 55 15 0 8 -5 15 -12 15 -7 0 3 16 22 35
19 19 35 35 36 35 1 0 -4 -17 -11 -37z m240 -87 c29 -44 20 -117 -16 -137 -30
-16 -66 12 -75 57 -15 80 52 139 91 80z m1505 9 c0 -10 -11 -15 -35 -15 -24 0
-35 5 -35 15 0 10 11 15 35 15 24 0 35 -5 35 -15z m-1100 -32 c37 -47 9 -143
-41 -143 -25 0 -59 47 -59 82 0 79 58 114 100 61z m-542 -40 c3 -10 -26 -13
-122 -13 -106 0 -126 2 -126 15 0 13 18 15 122 13 86 -2 123 -7 126 -15z
m1832 2 c0 -13 -22 -15 -140 -15 -120 0 -139 2 -134 15 5 12 30 15 140 15 112
0 134 -2 134 -15z m-1823 -62 c3 -9 -28 -11 -123 -10 -93 1 -128 5 -132 15 -3
10 24 12 124 10 88 -2 129 -7 131 -15z m1821 5 c-5 -15 -214 -24 -287 -13 -85
13 -19 25 137 25 119 0 153 -3 150 -12z m-1495 -14 c110 -11 87 -24 -30 -18
-59 4 -110 8 -112 10 -1 1 0 8 4 14 4 7 20 10 39 6 17 -3 62 -8 99 -12z m-285
-101 c3 -19 -2 -22 -35 -25 l-38 -3 -3 -102 c-3 -102 -3 -103 -27 -103 -25 0
-25 0 -25 105 l0 105 -34 0 c-37 0 -51 12 -42 36 5 12 24 14 103 12 92 -3 98
-4 101 -25z m512 12 c10 -12 10 -18 0 -30 -25 -30 -61 -7 -46 30 3 8 12 15 19
15 8 0 20 -7 27 -15z m240 -90 l0 -105 43 0 43 0 -4 40 c-3 33 1 44 26 70 17
17 41 30 55 30 28 0 77 -35 77 -56 0 -23 14 -16 32 16 20 35 58 47 97 30 37
-15 51 -48 51 -120 0 -57 -1 -60 -25 -60 -14 0 -25 4 -25 10 0 6 -10 5 -25 -2
-19 -9 -29 -7 -51 7 -14 9 -29 26 -31 36 -6 22 -23 26 -23 5 0 -20 -48 -56
-75 -56 -12 0 -34 9 -48 20 -25 20 -25 20 -30 0 -4 -17 -14 -20 -71 -20 -56 0
-66 3 -67 18 0 15 0 217 1 235 0 4 11 7 25 7 l25 0 0 -105z m580 90 c10 -12
10 -18 0 -30 -25 -30 -61 -7 -46 30 3 8 12 15 19 15 8 0 20 -7 27 -15z m-90
-30 c0 -20 30 -34 63 -28 25 5 27 3 27 -32 l0 -36 34 35 c18 20 40 36 49 36
28 0 63 -21 80 -48 l16 -27 1 38 c0 30 4 37 20 37 10 0 23 -7 28 -16 8 -14 10
-14 21 0 17 21 40 20 63 -1 14 -13 18 -31 18 -95 0 -77 -1 -79 -22 -76 -21 3
-23 9 -26 63 -3 67 -13 85 -36 66 -9 -8 -16 -34 -18 -69 -3 -50 -6 -57 -25
-60 -20 -3 -23 1 -23 35 l0 38 -20 -32 c-11 -18 -31 -35 -45 -39 -35 -9 -80
12 -96 44 l-14 27 -3 -37 c-3 -39 -25 -51 -49 -27 -8 8 -13 8 -17 0 -12 -18
-44 -12 -60 11 -9 13 -16 43 -16 70 0 27 -4 48 -10 48 -5 0 -10 11 -10 25 0
14 5 25 10 25 6 0 10 9 10 20 0 15 7 20 25 20 15 0 25 -6 25 -15z m-1198 -36
c3 -9 9 -9 25 0 36 19 53 14 53 -16 1 -23 2 -25 10 -12 17 29 66 43 100 29 17
-7 30 -16 30 -19 0 -4 6 -15 13 -26 13 -16 14 -15 9 13 -5 36 18 53 47 35 12
-7 23 -8 35 -1 27 15 64 -6 81 -45 l14 -32 1 43 c0 38 2 42 25 42 25 0 25 0
25 -96 0 -93 -1 -95 -22 -92 -18 2 -24 11 -29 43 -3 22 -7 32 -8 22 0 -10 -13
-29 -27 -44 -20 -20 -32 -24 -55 -19 -28 5 -29 4 -29 -30 0 -39 -21 -54 -46
-33 -13 10 -15 25 -11 67 l6 54 -24 -26 c-31 -34 -66 -41 -103 -22 -32 16 -57
70 -47 99 4 10 -1 17 -15 22 -33 10 -50 -12 -50 -64 0 -55 -11 -74 -36 -69
-16 3 -19 14 -22 82 -2 44 -1 85 2 93 7 16 43 17 48 2z m615 -60 c24 -24 2
-39 -57 -39 -60 0 -76 9 -66 35 7 18 106 21 123 4z m-425 -250 c74 -51 183
-102 284 -131 68 -20 101 -23 239 -22 153 0 164 2 260 33 119 40 159 59 243
117 45 31 73 44 97 44 19 0 35 -4 35 -9 0 -16 -146 -146 -203 -180 -123 -72
-247 -110 -394 -118 -183 -10 -355 34 -500 129 -75 49 -193 153 -193 170 0 4
17 8 37 8 27 0 53 -11 95 -41z m235 -31 c-2 -13 -4 -3 -4 22 0 25 2 35 4 23 2
-13 2 -33 0 -45z m137 53 c3 -5 3 -24 -1 -41 -6 -31 -7 -32 -20 -15 -12 17
-13 17 -13 2 0 -9 -4 -17 -10 -17 -5 0 -10 18 -10 40 0 36 3 40 24 40 14 0 27
-4 30 -9z m111 -11 c8 -26 -3 -60 -19 -60 -21 0 -33 20 -28 50 5 35 37 42 47
10z m76 -40 c5 0 9 14 9 30 0 17 5 30 10 30 12 0 13 -50 1 -69 -17 -27 -41 -4
-39 36 1 37 1 37 5 6 2 -18 8 -33 14 -33z m112 53 c-7 -2 -13 -20 -13 -39 0
-47 -17 -43 -22 6 -3 37 -2 40 22 39 14 0 19 -3 13 -6z m82 -10 c7 -17 8 -16
15 2 6 15 9 8 9 -25 0 -42 -1 -44 -14 -26 -13 17 -15 18 -15 3 0 -9 -4 -17
-10 -17 -5 0 -10 18 -10 40 0 42 13 53 25 23z m-917 -65 c15 -15 16 -48 2 -48
-5 0 -10 9 -10 20 0 24 -22 26 -41 4 -11 -14 -11 -18 4 -29 21 -15 22 -25 2
-25 -9 0 -21 11 -27 25 -9 21 -8 28 7 45 20 23 45 26 63 8z m1364 -38 c19 -14
28 -16 36 -8 17 17 27 1 12 -17 -17 -21 -30 -19 -62 10 -44 38 -31 51 14 15z
m-1256 -82 c-4 -13 -9 -36 -13 -51 -5 -25 -24 -35 -25 -12 0 18 -19 34 -34 28
-31 -12 -12 18 24 36 48 26 56 26 48 -1z m1191 -4 c43 -17 49 -34 12 -34 -12
0 -19 -7 -19 -20 0 -29 -16 -25 -28 8 -5 15 -13 35 -17 45 -9 21 -2 21 52 1z
m-1058 -73 c11 -21 3 -41 -15 -41 -8 0 -14 -9 -14 -21 0 -11 -4 -17 -10 -14
-5 3 -10 15 -10 27 0 17 -2 18 -15 8 -28 -23 -28 -1 -1 34 27 36 49 39 65 7z
m961 -12 c30 -26 31 -30 12 -26 -15 4 -27 -2 -37 -16 -18 -26 -22 -22 -31 31
-8 52 6 55 56 11z m-140 -49 c10 -23 17 -29 31 -25 11 4 19 2 19 -3 0 -10 -23
-22 -41 -22 -9 0 -39 52 -39 70 0 21 18 9 30 -20z m-618 -24 c11 -16 10 -22
-6 -36 -8 -6 -12 -18 -9 -26 3 -8 0 -14 -5 -14 -6 0 -14 9 -17 21 -7 19 -7 20
-21 2 -11 -15 -13 -16 -14 -2 0 9 5 30 11 48 9 26 15 30 33 25 11 -4 24 -12
28 -18z m540 -15 c19 -48 14 -56 -19 -33 -25 16 -25 15 -19 -6 13 -39 -11 -23
-28 19 -20 50 -15 57 20 35 25 -17 26 -17 19 3 -12 38 12 22 27 -18z m-412 -1
c0 -5 -9 -10 -20 -10 -22 0 -27 -15 -7 -23 9 -4 8 -8 -3 -16 -12 -9 -12 -11 3
-17 28 -10 19 -21 -14 -16 -21 3 -29 9 -25 19 3 8 6 28 6 44 0 26 4 29 30 29
17 0 30 -4 30 -10z m260 -5 c7 -8 10 -21 7 -29 -3 -7 0 -19 6 -25 19 -19 -2
-25 -23 -6 -19 18 -20 17 -20 -3 0 -39 -17 -23 -23 20 -4 28 -2 45 6 50 18 12
33 9 47 -7z m-130 -5 c0 -5 -10 -10 -22 -10 -21 -1 -22 -2 -5 -14 9 -7 17 -16
17 -19 0 -3 -8 -8 -17 -10 -14 -4 -12 -5 5 -6 30 -1 28 -21 -2 -21 -19 0 -24
6 -29 37 -4 20 -4 40 -1 45 7 11 54 10 54 -2z"/>
<path d="M953 1694 c-28 -14 -72 -79 -61 -89 2 -3 31 -7 64 -11 32 -4 70 -15
84 -25 19 -13 51 -18 130 -21 102 -4 103 -4 58 9 -35 10 -63 30 -116 83 -75
76 -98 84 -159 54z m151 -80 c27 -11 18 -34 -13 -34 -29 0 -57 21 -44 33 8 9
36 9 57 1z"/>
<path d="M1790 1490 c0 -6 37 -10 90 -10 53 0 90 4 90 10 0 6 -37 10 -90 10
-53 0 -90 -4 -90 -10z"/>
<path d="M1790 1390 c0 -22 130 -25 138 -2 3 9 -16 12 -67 12 -39 0 -71 -4
-71 -10z"/>
<path d="M890 2006 c-27 -33 18 -72 48 -42 13 13 14 20 6 34 -15 23 -38 26
-54 8z"/>
<path d="M2034 2006 c-10 -26 1 -51 23 -54 30 -4 49 31 27 52 -19 20 -43 21
-50 2z"/>
<path d="M779 1464 c-16 -20 -17 -80 -1 -96 32 -32 67 45 42 92 -13 24 -23 25
-41 4z"/>
<path d="M1174 1435 c-18 -28 -12 -76 13 -96 13 -11 18 -10 29 6 26 35 13 115
-18 115 -4 0 -15 -11 -24 -25z"/>
<path d="M1639 1129 c-13 -26 2 -69 25 -69 24 0 40 38 27 66 -13 30 -37 31
-52 3z"/>
<path d="M1811 1128 c-16 -45 13 -84 44 -58 28 24 12 80 -22 80 -8 0 -17 -10
-22 -22z"/>
<path d="M2009 1153 c-12 -3 -16 -13 -13 -36 1 -18 3 -38 3 -44 1 -7 8 -13 16
-13 11 0 15 12 15 50 0 28 -1 49 -2 49 -2 -1 -10 -3 -19 -6z"/>
<path d="M2152 1138 c-28 -28 -2 -88 33 -74 25 9 17 86 -9 86 -7 0 -17 -5 -24
-12z"/>
<path d="M924 1126 c-9 -38 -1 -61 23 -64 43 -6 42 78 0 86 -10 2 -19 -6 -23
-22z"/>
<path d="M1094 1126 c-9 -38 -1 -61 23 -64 25 -4 38 26 29 64 -8 32 -43 32
-52 0z"/>
<path d="M1320 890 c0 -5 5 -10 10 -10 6 0 10 5 10 10 0 6 -4 10 -10 10 -5 0
-10 -4 -10 -10z"/>
<path d="M1437 893 c-11 -10 -8 -43 3 -43 6 0 10 11 10 25 0 26 -2 29 -13 18z"/>
<path d="M1020 620 c0 -5 5 -10 10 -10 6 0 10 5 10 10 0 6 -4 10 -10 10 -5 0
-10 -4 -10 -10z"/>
<path d="M1615 510 c-3 -5 1 -10 9 -10 9 0 16 5 16 10 0 6 -4 10 -9 10 -6 0
-13 -4 -16 -10z"/>
</g>
</svg>
